<svg width="111" height="111" viewBox="0 0 111 111" fill="none" xmlns="http://www.w3.org/2000/svg">
<path d="M55.0995 33.7044L35.7723 53.0328L45.9293 63.1895L65.2585 43.8611L79.492 58.0941L60.1629 77.4225L74.3794 91.6385L110.459 55.5606L55.5911 0.697052L38.8428 17.4465L55.0995 33.7044ZM41.9834 55.2903C41.8321 55.1523 41.73 55.0558 41.6733 54.9991C41.1817 54.5075 40.8811 53.9706 40.7714 53.392C40.6107 52.5431 40.8848 51.7282 41.5901 50.9474L42.8077 52.165C42.5695 52.441 42.4939 52.7322 42.5827 53.0385C42.63 53.2049 42.7018 53.3448 42.7983 53.462C42.9174 53.5943 43.1008 53.7891 43.3485 54.05L41.9834 55.2903ZM43.1537 51.8266L41.9323 50.6052C42.4371 50.1136 42.9873 49.8262 43.5829 49.7449C44.3884 49.6296 45.0974 49.8773 45.7119 50.4917C46.3377 51.1176 46.6989 51.9835 46.7934 53.0858C46.852 53.8156 46.8237 54.6607 46.7046 55.6193L44.9613 57.3625L44.9745 57.2074C45.1352 55.5001 45.2128 54.5227 45.209 54.275C45.1938 53.15 44.9481 52.3503 44.4716 51.8738C44.0216 51.4257 43.5829 51.4106 43.1537 51.8266ZM45.935 59.3855L44.7684 58.2189L49.0926 53.895L50.2592 55.0615L45.935 59.3855ZM49.484 53.3353L48.2625 52.1139L47.2094 45.4682L48.5726 44.105L49.6201 50.9625L50.7999 49.7827L51.9192 50.902L49.484 53.3353ZM53.5226 51.7982L49.6541 47.9299L49.1833 44.9048L52.4316 48.153L53.2863 47.2984L54.4056 48.4177L53.551 49.2723L54.8007 50.522L53.5226 51.7982Z" fill="#0D2750"/>
<path d="M57.4591 78.7951L57.461 78.7932L56.0883 77.4206L75.4156 58.0941L65.2585 47.9374L45.9312 67.2639L32.6865 54.0235L31.6977 53.0309L51.0249 33.7044L36.8046 19.4828L0.725342 55.5606L55.5911 110.426L72.3412 93.6766L57.4591 78.7951Z" fill="#0D2750"/>
</svg>
