<svg width="64" height="48" viewBox="0 0 64 48" fill="none" xmlns="http://www.w3.org/2000/svg">
<path d="M60.6064 6.76632H3.12698C1.69 6.76632 0.514282 5.25475 0.514282 3.40727C0.514282 1.55979 1.69 0.0482178 3.12698 0.0482178H60.6064C62.0433 0.0482178 63.2191 1.55979 63.2191 3.40727C63.2191 5.25475 62.0433 6.76632 60.6064 6.76632ZM60.6064 26.9206H3.12698C1.69 26.9206 0.514282 25.4091 0.514282 23.5616C0.514282 21.7141 1.69 20.2025 3.12698 20.2025H60.6064C62.0433 20.2025 63.2191 21.7141 63.2191 23.5616C63.2191 25.4091 62.0433 26.9206 60.6064 26.9206ZM60.6064 47.075H3.12698C1.69 47.075 0.514282 45.5634 0.514282 43.7159C0.514282 41.8684 1.69 40.3568 3.12698 40.3568H60.6064C62.0433 40.3568 63.2191 41.8684 63.2191 43.7159C63.2191 45.5634 62.0433 47.075 60.6064 47.075Z" fill="#0D2750"/>
</svg>
